# xmcd CD database file
#
# Track frame offsets:
#	150
#	11726
#	27508
#	39785
#	52457
#	66313
#	77919
#	90238
#	102759
#	114378
#	125287
#	138010
#
# Disc length: 1981 seconds
#
# Revision: 0
# Processed by: cddbd v1.5.2PL0 Copyright (c) Steve Scherf et al.
# Submitted via: CDex 1.92
#
DISCID=9607bb0c
DTITLE=Elmore James - The Resurrection Of Elmore James
DYEAR=1969
DGENRE=Blues
TTITLE0=Hawaian Boogie (ver1)
TTITLE1=Quarter Past Nine
TTITLE2=Sho Nuff I Do (alt.take)
TTITLE3=Early In The Morning
TTITLE4=One More Drink (take1)
TTITLE5=Strange Kinda Feeling (take5)
TTITLE6=Make My Dreams Come True (take2)
TTITLE7=Late Hours At Midnight
TTITLE8=Elmo's Shuffle (take5)
TTITLE9=Can't Stop Lovin'
TTITLE10=Make A Little Love
TTITLE11=Hawaian Boogoie (ver2)
EXTD=YEAR: 1969
EXTT0=
EXTT1=
EXTT2=
EXTT3=
EXTT4=
EXTT5=
EXTT6=
EXTT7=
EXTT8=
EXTT9=
EXTT10=
EXTT11=
PLAYORDER=
